<?xml version="1.0" standalone="no"?>
<!DOCTYPE svg PUBLIC "-//W3C//DTD SVG 20010904//EN"
 "http://www.w3.org/TR/2001/REC-SVG-20010904/DTD/svg10.dtd">
<svg version="1.0" xmlns="http://www.w3.org/2000/svg"
 width="187.000000pt" height="187.000000pt" viewBox="0 0 187.000000 187.000000"
 preserveAspectRatio="xMidYMid meet">
<metadata>
Created by potrace 1.11, written by Peter Selinger 2001-2013
</metadata>
<g transform="translate(0.000000,187.000000) scale(0.100000,-0.100000)"
fill="#000000" stroke="none">
<path d="M551 1648 c3 -23 -1 -38 -8 -37 -5 1 -27 1 -50 0 -38 -1 -43 -4 -43
-24 0 -16 -6 -23 -21 -24 -26 -2 -30 -6 -32 -32 -1 -11 -5 -21 -10 -21 -5 0
-6 8 -3 18 6 16 5 16 -8 0 -7 -11 -27 -18 -45 -18 -26 0 -31 -4 -31 -25 0 -20
-5 -25 -25 -25 -18 0 -25 -5 -25 -20 0 -15 -7 -20 -25 -20 -20 0 -25 -5 -25
-24 0 -13 -6 -27 -12 -29 -10 -4 -10 -6 0 -6 15 -1 16 -27 2 -36 -6 -4 -18 -1
-26 6 -8 7 -14 8 -13 3 1 -5 1 -21 0 -36 -1 -23 -6 -28 -26 -28 -23 0 -25 -3
-25 -50 0 -49 -5 -55 -37 -51 -10 2 -13 -59 -13 -274 l0 -275 23 4 c19 3 23
-1 23 -23 2 -91 20 -142 39 -112 3 6 0 9 -7 8 -7 -2 -9 -2 -5 1 4 2 3 10 -3
17 -9 10 -7 13 7 11 10 -2 19 -12 19 -24 1 -12 2 -33 3 -47 1 -20 6 -25 26
-25 18 0 25 -5 25 -20 0 -15 7 -20 25 -20 20 0 25 -5 25 -25 0 -20 5 -25 25
-25 20 0 25 -5 25 -25 0 -25 6 -27 80 -28 9 0 16 -8 16 -18 0 -10 -5 -15 -11
-12 -7 4 -7 2 0 -5 6 -7 34 -13 62 -14 49 -3 56 -9 40 -35 -6 -9 59 -12 273
-13 l280 -1 0 26 c0 23 3 25 50 25 47 0 50 2 50 25 0 20 5 25 25 25 20 0 25 5
25 25 0 20 5 25 25 25 20 0 25 5 25 25 0 20 5 25 25 25 18 0 25 5 25 20 0 15
7 20 25 20 23 0 25 3 25 50 0 47 2 50 25 50 l25 0 0 245 0 245 75 0 c73 0 75
1 75 25 0 20 5 25 25 25 20 0 25 5 25 25 0 20 5 25 25 25 22 0 25 4 25 36 0
25 4 33 13 28 10 -6 10 -4 0 7 -19 20 -16 34 4 18 11 -10 14 -10 9 -1 -4 7 -1
12 8 12 11 0 16 9 16 26 0 23 -3 26 -26 21 -22 -4 -25 -1 -22 22 l3 26 -465 2
c-383 1 -462 0 -447 -11 24 -18 21 -38 -5 -36 -63 5 -78 1 -78 -25 0 -23 -3
-25 -50 -25 -47 0 -50 -1 -50 -26 0 -23 -3 -26 -27 -22 -28 4 -28 4 -24 -51 2
-44 0 -53 -11 -48 -25 9 -37 -7 -41 -53 -3 -32 -8 -44 -21 -46 -13 -2 -14 1
-7 10 6 7 7 17 3 21 -4 5 0 5 8 0 8 -5 12 -4 7 0 -4 5 -13 10 -21 11 -9 1 -13
-27 -15 -117 l-2 -119 26 0 c25 0 26 -2 23 -52 -2 -32 -8 -53 -15 -53 -6 0
-15 -4 -20 -8 -4 -5 -2 -7 6 -5 7 2 15 -4 16 -13 2 -11 -3 -16 -14 -15 -9 2
-17 13 -17 24 -1 12 -2 33 -3 47 -1 20 -6 25 -26 25 l-26 0 2 155 c1 136 8
183 21 143 9 -26 28 6 28 48 0 40 2 44 25 44 23 0 25 3 25 50 0 47 2 50 25 50
20 0 25 5 25 25 0 15 5 25 13 24 6 -1 29 -1 50 0 33 1 37 4 37 26 0 23 3 25
50 25 35 0 50 4 49 13 -5 38 -15 37 496 37 l495 0 0 25 c0 23 3 25 50 25 l50
0 1 38 c1 20 1 40 0 44 0 5 2 7 7 7 38 -6 42 0 42 76 l0 75 -645 0 c-511 0
-646 -3 -644 -12z m-161 -600 c0 -7 -5 -6 -13 1 -8 6 -18 7 -22 3 -5 -4 -5 -2
-1 5 8 14 36 6 36 -9z m600 -98 c0 -20 -4 -21 -97 -18 -64 2 -97 7 -96 14 1 6
-4 11 -12 11 -8 0 -11 -5 -8 -10 4 -6 1 -7 -8 -2 -8 5 -11 4 -6 -1 5 -5 14 -9
20 -9 7 0 13 -12 15 -27 3 -24 0 -28 -23 -28 -23 0 -25 3 -23 38 1 20 6 40 11
43 5 4 58 7 118 8 104 2 109 1 109 -19z m51 -33 c-1 -4 -1 -14 -1 -22 0 -9 -9
-15 -25 -15 -20 0 -25 5 -25 23 0 13 3 26 6 30 7 7 46 -6 45 -16z m42 -30 c4
3 7 -53 7 -125 l0 -132 -25 0 c-20 0 -25 -5 -25 -25 0 -20 -5 -25 -25 -25 -20
0 -25 -5 -25 -25 0 -20 -5 -25 -25 -25 -20 0 -25 -5 -25 -25 l0 -25 -170 0
-170 0 0 25 c0 25 -8 29 -76 28 -20 0 -21 3 -15 36 1 2 8 -2 16 -9 12 -10 16
-9 21 4 4 12 19 16 55 16 46 0 49 -2 49 -25 l0 -25 125 0 125 0 0 25 c0 18 5
25 20 25 15 0 20 7 20 25 0 20 5 25 25 25 20 0 25 5 25 25 0 20 5 25 25 25
l25 0 0 100 c0 58 4 100 10 100 5 0 7 8 4 18 -5 16 -5 16 9 0 8 -10 17 -15 20
-11z m-583 -232 c0 -20 5 -25 25 -25 20 0 25 -5 25 -25 0 -14 -5 -25 -11 -25
-5 0 -7 -6 -3 -12 6 -10 5 -10 -7 -1 -15 12 -18 13 -53 13 -19 0 -25 6 -28 33
-6 51 1 67 28 67 19 0 24 -5 24 -25z"/>
<path d="M356 1543 c-6 -14 -5 -15 5 -6 7 7 10 15 7 18 -3 3 -9 -2 -12 -12z"/>
<path d="M1813 1485 c-3 -9 -3 -19 1 -22 3 -4 6 1 6 11 0 10 5 14 12 10 7 -4
8 -3 4 4 -10 16 -15 15 -23 -3z"/>
<path d="M162 1354 c10 -10 20 -16 22 -13 3 3 -5 11 -17 18 -21 13 -21 12 -5
-5z"/>
<path d="M710 1290 c8 -5 20 -10 25 -10 6 0 3 5 -5 10 -8 5 -19 10 -25 10 -5
0 -3 -5 5 -10z"/>
<path d="M1670 1180 c0 -5 5 -10 11 -10 5 0 7 5 4 10 -3 6 -8 10 -11 10 -2 0
-4 -4 -4 -10z"/>
<path d="M1843 764 c0 -7 4 -11 9 -8 4 3 8 0 8 -5 0 -6 -4 -11 -8 -11 -4 0 -9
-11 -10 -25 -1 -14 4 -25 11 -25 9 0 9 -2 0 -8 -13 -8 -12 -29 1 -51 6 -9 5
-12 -2 -7 -7 4 -10 -10 -9 -42 1 -29 7 -49 13 -49 13 0 13 15 1 35 -5 6 -4 12
1 12 5 0 9 44 8 98 0 65 -4 99 -12 99 -6 0 -11 -6 -11 -13z"/>
<path d="M60 605 c-7 -9 -10 -18 -6 -22 3 -3 6 0 6 8 0 11 2 12 9 1 7 -11 9
-11 14 2 8 21 -8 29 -23 11z"/>
<path d="M355 261 c2 -9 4 -18 4 -21 2 -6 21 23 21 31 0 3 -6 6 -14 6 -7 0
-12 -7 -11 -16z"/>
<path d="M454 219 c-10 -17 10 -29 23 -14 10 10 9 14 -2 19 -8 3 -17 0 -21 -5z"/>
</g>
</svg>
